<svg width="19" height="22" viewBox="0 0 19 22" fill="none" xmlns="http://www.w3.org/2000/svg">
<path d="M3 16.3333L3 21L18 21L18 0.999999L3 0.999998L3 5.66666" stroke="#1E1E20" stroke-width="2"/>
<path d="M10.4243 11.4243C10.6586 11.1899 10.6586 10.8101 10.4243 10.5757L6.60589 6.75736C6.37157 6.52304 5.99167 6.52304 5.75736 6.75736C5.52305 6.99167 5.52305 7.37157 5.75736 7.60589L9.15147 11L5.75736 14.3941C5.52305 14.6284 5.52305 15.0083 5.75736 15.2426C5.99167 15.477 6.37157 15.477 6.60589 15.2426L10.4243 11.4243ZM0 11.6H10V10.4H0V11.6Z" fill="#1E1E20"/>
</svg>
